<svg id="Capa_1" enable-background="new 0 0 512 512" height="512" viewBox="0 0 512 512" width="512" xmlns="http://www.w3.org/2000/svg"><g><path d="m203.6 164.123h-79.088c-4.143 0-7.5 3.358-7.5 7.5s3.357 7.5 7.5 7.5h79.088c4.143 0 7.5-3.358 7.5-7.5s-3.358-7.5-7.5-7.5z"/><path d="m203.6 228.114h-79.088c-4.143 0-7.5 3.358-7.5 7.5s3.357 7.5 7.5 7.5h79.088c4.143 0 7.5-3.358 7.5-7.5s-3.358-7.5-7.5-7.5z"/><path d="m512 203.619c0-29.455-19.78-54.805-47.758-62.238-5.176-34.272-14.624-65.881-27.822-92.275-7.814-15.625-26.886-21.981-42.514-14.171-15.626 7.814-21.983 26.885-14.171 42.513 2.269 4.538 4.393 9.301 6.379 14.253l-128.784 44.921c-4.421-15.927-19.041-27.655-36.357-27.655h-54.074c-4.143 0-7.5 3.358-7.5 7.5s3.357 7.5 7.5 7.5h54.074c12.536 0 22.734 10.198 22.734 22.734v113.835c0 12.536-10.198 22.734-22.734 22.734h-113.835c-12.536 0-22.734-10.199-22.734-22.734v-113.835c0-12.536 10.198-22.734 22.734-22.734h27.075c4.143 0 7.5-3.358 7.5-7.5s-3.357-7.5-7.5-7.5h-27.075c-18.239 0-33.495 13.008-36.983 30.234h-5.736c-35.522 0-64.419 28.898-64.419 64.418s28.897 64.417 64.418 64.417h5.736c3.488 17.226 18.744 30.234 36.983 30.234h14.53v67.349c0 4.142 3.357 7.5 7.5 7.5s7.5-3.358 7.5-7.5v-67.349h19.888v73.568c0 9.649 7.851 17.5 17.5 17.5h17.389v48.68c0 15.102-12.286 27.388-27.389 27.388-15.102 0-27.388-12.286-27.388-27.388v-39.837c0-4.142-3.357-7.5-7.5-7.5s-7.5 3.358-7.5 7.5v39.837c0 23.373 19.015 42.388 42.388 42.388s42.389-19.015 42.389-42.388v-139.748h14.529c17.316 0 31.935-11.728 36.357-27.656l58.645 20.457c.817.285 1.65.42 2.47.42 3.102 0 6.003-1.938 7.082-5.032 1.363-3.911-.701-8.188-4.612-9.552l-62.207-21.699v-103.18l132.505-46.22c9.268 28.557 14.245 62.261 14.245 97.811s-4.977 69.253-14.245 97.81l-39.444-13.758c-3.911-1.363-8.188.701-9.552 4.611-1.363 3.911.701 8.188 4.612 9.552l39.284 13.703c-1.986 4.952-4.11 9.715-6.379 14.253-7.812 15.628-1.454 34.699 14.174 42.514 4.447 2.223 9.209 3.35 14.15 3.35 12.091 0 22.958-6.714 28.361-17.522 13.197-26.394 22.646-58.002 27.822-92.274 27.979-7.434 47.759-32.784 47.759-62.239zm-497 0c0-27.249 22.169-49.418 49.418-49.418h4.985v98.835h-4.985c-27.249 0-49.418-22.168-49.418-49.417zm176.444 170.719h-17.389c-1.379 0-2.5-1.122-2.5-2.5v-73.568h19.889zm231.561-22.915c-2.847 5.693-8.573 9.23-14.945 9.23-2.594 0-5.099-.595-7.443-1.767-8.23-4.115-11.577-14.159-7.464-22.389 17.608-35.217 27.306-82.408 27.306-132.879 0-50.472-9.697-97.663-27.306-132.879-4.114-8.23-.766-18.274 7.462-22.389 2.39-1.194 4.93-1.759 7.436-1.759 6.126 0 12.034 3.382 14.955 9.222 19.88 39.761 30.828 92.252 30.828 147.805-.001 55.555-10.949 108.046-30.829 147.805zm43.374-102.077c1.617-14.9 2.454-30.205 2.454-45.727s-.837-30.827-2.454-45.727c18.226 7.453 30.621 25.301 30.621 45.727 0 20.425-12.395 38.273-30.621 45.727z"/></g></svg>